<svg height="149.277" viewBox="0 0 212.593 149.277" width="212.593" xmlns="http://www.w3.org/2000/svg" xmlns:xlink="http://www.w3.org/1999/xlink"><clipPath id="a"><path d="m78.538-104.722h212.593v-149.278h-212.593z" transform="translate(-78.538 253.999)"/></clipPath><clipPath id="b"><path d="m0 0h12.489v12.489h-12.489z"/></clipPath><clipPath id="c"><path d="m217.711-230.294h12.489v-12.489h-12.489z" transform="translate(-217.711 242.783)"/></clipPath><clipPath id="d"><path d="m0 0h33.498v32.293h-33.498z"/></clipPath><clipPath id="e"><path d="m176.889-204.33h33.5v-32.293h-33.5z" transform="translate(-176.889 236.623)"/></clipPath><clipPath id="f"><path d="m0 0h18.147v18.147h-18.147z"/></clipPath><clipPath id="g"><path d="m206.612-222.739h18.147v-18.147h-18.147z" transform="translate(-206.612 240.886)"/></clipPath><clipPath id="h"><path d="m0 0h13.203v13.204h-13.203z"/></clipPath><clipPath id="i"><path d="m171.364-203.969h13.2v-13.2h-13.2z" transform="translate(-171.364 217.173)"/></clipPath><clipPath id="j"><path d="m0 0h24.979v24.978h-24.979z"/></clipPath><clipPath id="k"><path d="m153.087-191.1h24.979v-24.979h-24.979z" transform="translate(-153.087 216.075)"/></clipPath><clipPath id="l"><path d="m0 0h15.441v15.44h-15.441z"/></clipPath><clipPath id="m"><path d="m147.389-189.7h15.44v-15.44h-15.44z" transform="translate(-147.389 205.144)"/></clipPath><clipPath id="n"><path d="m0 0h8.078v8.078h-8.078z"/></clipPath><clipPath id="o"><path d="m144.139-188.683h8.078v-8.078h-8.078z" transform="translate(-144.139 196.761)"/></clipPath><clipPath id="p"><path d="m0 0h5.883v5.882h-5.883z"/></clipPath><clipPath id="q"><path d="m150.644-192.852h5.883v-5.882h-5.883z" transform="translate(-150.644 198.734)"/></clipPath><g clip-path="url(#a)"><g fill="#595b60"><path d="m0-.012h1.305v.806h.038a1.926 1.926 0 0 1 1.65-.985 1.494 1.494 0 0 1 1.599 1.049 1.877 1.877 0 0 1 1.739-1.049c.972 0 1.676.5 1.676 1.83v5.231h-1.382v-4.721c0-.895-.269-1.24-.831-1.24s-1.1.448-1.1 1.343v4.618h-1.381v-4.721c0-.895-.269-1.24-.844-1.24-.55 0-1.088.448-1.088 1.343v4.618h-1.381z" transform="translate(0 140.155)"/><path d="m88.642-104.566h1.381v6.882h-1.381zm0-2.354h1.381v1.381h-1.381z" transform="translate(-79.176 244.71)"/><path d="m-.331-.307c-.09 1.651-.653 2.686-2.354 2.686-1.995 0-2.558-1.479-2.558-3.619s.563-3.621 2.558-3.621a2.216 2.216 0 0 1 2.366 2.469h-1.381c0-.64-.18-1.472-.986-1.446-1 0-1.176 1.075-1.176 2.6s.179 2.6 1.176 2.6c.768.013 1.049-.627 1.049-1.663z" transform="translate(17.215 144.825)"/><path d="m0-.012h1.381v1.074h.026a1.7 1.7 0 0 1 1.6-1.253 1.052 1.052 0 0 1 .333.052v1.407a2.628 2.628 0 0 0 -.576-.077c-.627 0-1.382.281-1.382 1.56v4.119h-1.382z" transform="translate(17.92 140.155)"/><path d="m-.172-.419c1.011 0 1.19-.844 1.19-2.6 0-1.521-.179-2.6-1.19-2.6s-1.177 1.075-1.177 2.6c0 1.753.179 2.6 1.177 2.6m0-6.217c2.009 0 2.572 1.484 2.572 3.62s-.654 3.616-2.572 3.616-2.558-1.479-2.558-3.616.562-3.62 2.558-3.62" transform="translate(24.411 146.6)"/><path d="m-.166-.554c.958 0 1.166-.984 1.166-2.546 0-1.853-.284-2.493-1.077-2.493-1.061 0-1.253.946-1.253 2.6 0 1.472.217 2.443 1.164 2.443m-2.469-8.216h1.382v3.057h.025a1.6 1.6 0 0 1 1.56-.985c1.049 0 2.124.473 2.124 3.531 0 2.363-.64 3.709-2.256 3.709a1.47 1.47 0 0 1 -1.5-1.023h-.026v.844h-1.3z" transform="translate(30.507 146.658)"/><path d="m114.924-104.566h1.376v6.882h-1.381zm0-2.354h1.376v1.381h-1.381z" transform="translate(-80.836 244.71)"/><path d="m-.172-.419c1.011 0 1.19-.844 1.19-2.6 0-1.521-.179-2.6-1.19-2.6s-1.177 1.075-1.177 2.6c0 1.753.179 2.6 1.177 2.6m0-6.217c2.009 0 2.572 1.484 2.572 3.62s-.654 3.616-2.572 3.616-2.558-1.479-2.558-3.616.562-3.62 2.558-3.62" transform="translate(39.326 146.6)"/><path d="m0-.132h.947v-1.957h1.381v1.957h1.125v1.023h-1.125v4.109c0 .538.154.73.627.73a2.649 2.649 0 0 0 .5-.038v1.02a4.565 4.565 0 0 1 -1.112.115c-.934 0-1.394-.256-1.394-1.663v-4.273h-.949z" transform="translate(42.172 140.275)"/><path d="m-.235-.231a9.042 9.042 0 0 1 -1.535.64 1.13 1.13 0 0 0 -.563 1.113c0 .575.281 1.036.857 1.036.831 0 1.24-.628 1.24-1.638zm1.305 2.201c0 .255.154.485.358.485a.583.583 0 0 0 .23-.037v.895a1.646 1.646 0 0 1 -.678.167c-.614 0-1.125-.243-1.164-.909h-.025a1.79 1.79 0 0 1 -1.714 1.01c-1.1 0-1.791-.614-1.791-1.932a1.889 1.889 0 0 1 1.6-2.162l1.074-.294c.5-.14.806-.281.806-.882 0-.627-.217-1.024-.946-1.024-.921 0-1.049.653-1.049 1.318h-1.306c0-1.459.6-2.264 2.418-2.264 1.215 0 2.188.473 2.188 1.688z" transform="translate(49.788 143.623)"/><path d="m-.221-.147v-.179c0-.55-.191-1.062-.908-1.062-.55 0-.986.257-.986.9 0 .537.243.755.972 1.01l.883.307a1.866 1.866 0 0 1 1.5 1.983c0 1.471-1.075 2.1-2.469 2.1-1.741-.012-2.271-.812-2.271-2.143v-.256h1.227v.217c0 .793.282 1.228 1.075 1.228.755 0 1.126-.384 1.126-1.011a1 1 0 0 0 -.749-1.01l-1.126-.4a1.833 1.833 0 0 1 -1.471-1.979c0-1.292.934-1.893 2.353-1.893 1.752 0 2.149 1.023 2.149 1.88v.307z" transform="translate(58.523 142.299)"/><path d="m-.237-.41h-.038a1.977 1.977 0 0 1 -1.766.985c-1.023 0-1.714-.475-1.714-2.25v-4.811h1.382v4.938c0 .767.346 1.023.934 1.023a1.079 1.079 0 0 0 1.125-1.15v-4.811h1.382v6.886h-1.305z" transform="translate(64.538 146.629)"/><path d="m-.221-.147v-.179c0-.55-.191-1.062-.908-1.062-.55 0-.986.257-.986.9 0 .537.243.755.972 1.01l.883.307a1.866 1.866 0 0 1 1.5 1.983c0 1.471-1.075 2.1-2.469 2.1-1.741-.012-2.271-.812-2.271-2.143v-.256h1.227v.217c0 .793.282 1.228 1.075 1.228.754 0 1.125-.384 1.125-1.011a1 1 0 0 0 -.748-1.01l-1.126-.4a1.833 1.833 0 0 1 -1.471-1.979c0-1.292.934-1.893 2.353-1.893 1.752 0 2.15 1.023 2.15 1.88v.307z" transform="translate(70.124 142.299)"/><path d="m-.167-.414c.792 0 1.151-.586 1.151-2.494 0-1.561-.2-2.545-1.164-2.545s-1.165.972-1.165 2.442c0 1.651.2 2.6 1.177 2.6m-2.481-5.964h1.305v.845h.025a1.629 1.629 0 0 1 1.549-1.024c1.573 0 2.213 1.343 2.213 3.71 0 2.891-1.178 3.53-2.125 3.53a1.6 1.6 0 0 1 -1.56-.986h-.025v3.058h-1.382z" transform="translate(75.034 146.518)"/><path d="m-.242-.192v-.37c0-.871-.282-1.538-1.058-1.538-.883 0-1.151.869-1.151 1.765v.141zm-2.213.947v.4c0 .921.115 2.1 1.151 2.1.985 0 1.1-1.126 1.1-1.536h1.304a2.276 2.276 0 0 1 -2.417 2.481c-1.126 0-2.52-.333-2.52-3.518 0-1.8.384-3.722 2.545-3.722 1.92 0 2.43 1.15 2.43 3.069v.73z" transform="translate(82.183 143.009)"/><path d="m0-.012h1.306v.806h.037a1.974 1.974 0 0 1 1.765-.985c1.049 0 1.714.473 1.714 1.867v5.194h-1.38v-4.721c0-.895-.27-1.24-.96-1.24-.563 0-1.1.448-1.1 1.343v4.618h-1.382z" transform="translate(84.46 140.155)"/><path d="m-.221-.147v-.179c0-.55-.191-1.062-.908-1.062-.55 0-.986.257-.986.9 0 .537.243.755.972 1.01l.883.307a1.866 1.866 0 0 1 1.5 1.983c0 1.471-1.075 2.1-2.469 2.1-1.741-.012-2.271-.812-2.271-2.143v-.256h1.227v.217c0 .793.282 1.228 1.075 1.228.755 0 1.126-.384 1.126-1.011a1 1 0 0 0 -.749-1.01l-1.126-.4a1.833 1.833 0 0 1 -1.471-1.979c0-1.292.934-1.893 2.353-1.893 1.752 0 2.149 1.023 2.149 1.88v.307z" transform="translate(93.801 142.299)"/><path d="m181.144-104.566h1.381v6.882h-1.381zm0-2.354h1.381v1.381h-1.381z" transform="translate(-85.018 244.71)"/><path d="m-.172-.419c1.01 0 1.19-.844 1.19-2.6 0-1.521-.18-2.6-1.19-2.6s-1.178 1.082-1.178 2.603c0 1.753.18 2.6 1.178 2.6m0-6.217c2.009 0 2.571 1.484 2.571 3.62s-.653 3.613-2.571 3.613-2.559-1.479-2.559-3.616.563-3.62 2.559-3.62" transform="translate(101.364 146.6)"/><path d="m0-.012h1.305v.806h.038a1.974 1.974 0 0 1 1.765-.985c1.049 0 1.713.473 1.713 1.867v5.194h-1.38v-4.721c0-.895-.269-1.24-.959-1.24-.563 0-1.1.448-1.1 1.343v4.618h-1.382z" transform="translate(104.824 140.155)"/><path d="m-.347-.182v.653l-5.079 2.7v-.771l4.426-2.236v-.026l-4.425-2.252v-.767zm-5.142 3.837h5.168v.653h-5.168z" transform="translate(119.472 142.526)"/><path d="m-.122-.266h.563c.959 0 1.381-.691 1.381-1.6 0-.831-.306-1.509-1.177-1.509-1.19 0-1.3 1.1-1.3 1.765h-1.129c0-1.548.729-2.609 2.4-2.609a2.14 2.14 0 0 1 2.332 2.353 1.868 1.868 0 0 1 -1.408 1.944v.022a1.935 1.935 0 0 1 1.676 2.115c0 1.65-.831 2.8-2.571 2.8a2.411 2.411 0 0 1 -2.57-2.515v-.119h1.125c0 .832.409 1.79 1.446 1.79.665 0 1.446-.332 1.446-1.867a1.51 1.51 0 0 0 -1.638-1.726h-.576z" transform="translate(122.164 142.188)"/><path d="m-.161-.566c1 0 1.253-1.126 1.253-2.686 0-1.638-.256-2.687-1.253-2.687-1.151 0-1.381 1.356-1.381 2.687 0 1.406.23 2.686 1.381 2.686m-2.393-8.391h1.075v3.057h.025a1.7 1.7 0 0 1 1.587-.959c1.855 0 2.084 2.175 2.084 3.608 0 1.93-.652 3.606-2.238 3.606a1.554 1.554 0 0 1 -1.479-1.024h-.03v.845h-1.024z" transform="translate(131.439 146.849)"/><path d="m222.5-104.534h1.075v6.856h-1.075zm0-2.277h1.075v1.228h-1.075z" transform="translate(-87.63 244.703)"/><path d="m225.287-106.811h1.075v9.133h-1.075z" transform="translate(-87.806 244.703)"/><path d="m228.072-106.811h1.074v9.133h-1.074z" transform="translate(-87.982 244.703)"/><path d="m230.857-104.534h1.075v6.856h-1.075zm0-2.277h1.075v1.228h-1.075z" transform="translate(-88.158 244.703)"/><path d="m-.257-.243c0-1.484-.217-2.763-1.369-2.763-1.087 0-1.317 1.279-1.317 2.763s.217 2.763 1.317 2.763c1.139 0 1.369-1.28 1.369-2.763m-1.343-3.608c1.982 0 2.469 1.676 2.469 3.608s-.499 3.607-2.469 3.607-2.469-1.676-2.469-3.607.5-3.608 2.469-3.608" transform="translate(148.982 143.841)"/><path d="m0-.012h1.024v.806h.025a1.832 1.832 0 0 1 1.663-.985c1.8 0 1.8 1.369 1.8 2.174v4.86h-1.07v-4.731c0-.525-.042-1.382-1.011-1.382a1.323 1.323 0 0 0 -1.356 1.382v4.732h-1.075z" transform="translate(150.924 140.181)"/><path d="m-.385-.416c-.103 1.727-.781 3.316-2.776 3.316-2.597 0-2.939-2.446-2.939-4.749s.422-4.745 2.942-4.745c1.868 0 2.648 1.048 2.7 2.84h-1.182c-.025-1.037-.36-1.92-1.521-1.92-1.561 0-1.765 1.714-1.765 3.825s.2 3.825 1.765 3.825c1.369 0 1.561-1.28 1.6-2.393z" transform="translate(165.164 144.308)"/><path d="m0 0h4.72v1h-3.594v2.864h3.39v1h-3.39v4.269h-1.126z" transform="translate(165.827 137.892)"/><path d="m0 0h1.126v6.422c0 1.342.434 1.969 1.547 1.969 1.2 0 1.561-.69 1.561-1.969v-6.422h1.126v6.422c0 1.752-.9 2.89-2.687 2.89-1.829 0-2.673-1.012-2.673-2.89z" transform="translate(171.404 137.892)"/><path d="m-.2 0h.844l-2.968 9.491h-.845z" transform="translate(180.444 137.713)"/><path d="m0-.1c1.138-.064 2.188-.205 2.239-1.484h.767v9.056h-1.074v-6.805h-1.932z" transform="translate(181.497 139.553)"/><path d="m-.049 0h4.042v1h-3.185l-.358 2.619.025.026a2.049 2.049 0 0 1 1.586-.677c1.357 0 2.277 1.074 2.277 2.98 0 1.689-.743 3.108-2.635 3.108a2.355 2.355 0 0 1 -2.481-2.507h1.126c0 .473.179 1.662 1.381 1.662 1.279 0 1.484-1.432 1.484-2.353 0-1-.371-2.046-1.509-2.046a1.344 1.344 0 0 0 -1.279.882l-.972-.051z" transform="translate(186.79 138.148)"/><path d="m-.174-.566c1.381 0 1.458-1.829 1.458-3.735 0-2-.077-3.811-1.458-3.811s-1.459 1.812-1.459 3.812c0 1.906.078 3.735 1.459 3.735m-2.584-3.735c0-2 .141-4.656 2.584-4.656s2.584 2.429 2.584 4.656c0 1.918-.141 4.578-2.584 4.578s-2.584-2.43-2.584-4.578" transform="translate(194.885 146.926)"/><path d="m0-.012h1.023v.806h.026a1.832 1.832 0 0 1 1.663-.985 1.346 1.346 0 0 1 1.488 1.091 1.9 1.9 0 0 1 1.621-1.091c1.8 0 1.8 1.369 1.8 2.174v4.86h-1.072v-4.731c0-.525-.038-1.382-.921-1.382a1.261 1.261 0 0 0 -1.28 1.382v4.732h-1.074v-4.732c0-.525-.038-1.382-.921-1.382a1.26 1.26 0 0 0 -1.278 1.382v4.732h-1.075z" transform="translate(198.586 140.181)"/><path d="m0 0h1.126v8.136h3.709v1h-4.835z" transform="translate(207.757 137.892)"/></g><path d="m-1.933 0-10.911 13.483-10.966-13.483h-6.8l14.92 18.207v13.6h5.69v-13.645l14.806-18.162z" fill="#003b61" transform="translate(118.735 67.313)"/><path d="m-1.412-.631c0 3.617-1.8 5.451-5.338 5.451h-9.922v-10.364h9.1c3.857 0 6.158 1.837 6.158 4.914m-3.035 9.445c.123-.017.244-.037.362-.058 5.512-1.129 8.306-4.288 8.306-9.388 0-5.681-4.434-9.352-11.3-9.352h-15.28v31.81h5.686v-12.747h4.3c1.708 0 2.342.536 4.317 2.829a110.94 110.94 0 0 1 7.817 9.7l.148.217h6.541l-.512-.772a68.312 68.312 0 0 0 -10.385-12.239" fill="#ec6c21" transform="translate(22.623 77.296)"/><path d="m0-1.717c.127 5.095 3.556 6.217 8.679 6.344h15.171v-4.393h-14.35c-3.42 0-3.815-1.452-3.815-2.545v-7.289h16.91v-4.393h-16.91v-8.8h18.165v-4.393h-23.85z" fill="#ec6c21" transform="translate(31.902 94.495)"/><path d="m-1.048-1.848h-9.867v-9.694h9.815c2.361 0 6.321.674 6.321 5.183 0 3.926-3.926 4.512-6.267 4.512m-.927-13.82h-8.939v-9.2h8.558c2.766 0 5.721 1.114 5.721 4.243a5.106 5.106 0 0 1 -5.34 4.959m7.173 1.81a7.79 7.79 0 0 0 4.017-6.772c0-6.831-6.32-8.637-9.661-8.637h-16.156v31.809h15.5c7.884 0 12.225-3.162 12.225-8.9 0-4-2.792-6.525-5.926-7.495" fill="#003b61" transform="translate(77.909 96.577)"/><path d="m-1.976 0h-29.305v4.393h11.837v27.417h5.686v-27.417h11.782z" fill="#003b61" transform="translate(186.368 67.313)"/><path d="m-1.547-1.236h-12.119a130.655 130.655 0 0 1 6.08-13.164 131.136 131.136 0 0 1 6.039 13.164m10.58 12.807c-3.724-10.433-7.087-19.332-13.562-30.89l-.143-.254h-5.873l-.142.254c-6.477 11.558-9.84 20.457-13.564 30.891l-.236.664h5.8l.116-.333c.883-2.537 1.823-5.1 2.733-7.572l.528-1.442h15.396l3.382 9.347h5.8z" fill="#003b61" transform="translate(202.903 86.886)"/><path d="m-1.1-1.924c-6.491 0-10.853-4.7-10.853-11.7 0-8.241 5.474-11.93 10.9-11.93s10.9 3.688 10.9 11.93c0 7-4.4 11.7-10.944 11.7m11.076-24.682a16.774 16.774 0 0 0 -11.03-3.863 16.773 16.773 0 0 0 -11.029 3.863c-3.449 2.986-5.273 7.472-5.273 12.977 0 10.062 6.378 16.575 16.257 16.615h.091c9.879-.04 16.256-6.553 16.256-16.615 0-5.5-1.822-9.991-5.272-12.977" fill="#003b61" transform="translate(139.533 96.868)"/><g clip-path="url(#b)" opacity=".2" transform="translate(130.384 10.508)"><g clip-path="url(#c)"><path d="m-.842-.421a6.246 6.246 0 0 0 -6.245-6.245 6.245 6.245 0 0 0 -6.245 6.245 6.245 6.245 0 0 0 6.245 6.245 6.246 6.246 0 0 0 6.245-6.245" fill="#003b61" transform="translate(13.331 6.665)"/></g></g><path d="m0-1.656a24.569 24.569 0 0 0 24.568 24.568 24.569 24.569 0 0 0 24.569-24.568 24.568 24.568 0 0 0 -24.569-24.568 24.569 24.569 0 0 0 -24.568 24.568" fill="#808384" transform="translate(83.138 33.282)"/><g clip-path="url(#d)" opacity=".88" transform="translate(92.14 16.279)"><g clip-path="url(#e)"><path d="m0-1.089c0 8.917 7.5 16.147 16.749 16.147s16.751-7.23 16.751-16.147-7.5-16.146-16.751-16.146-16.749 7.229-16.749 16.146" fill="#fff" transform="translate(0 17.235)"/></g></g><g clip-path="url(#f)" opacity=".44" transform="translate(119.986 12.285)"><g clip-path="url(#g)"><path d="m-1.223-.612a9.074 9.074 0 0 0 -9.077-9.073 9.074 9.074 0 0 0 -9.07 9.073 9.074 9.074 0 0 0 9.07 9.074 9.074 9.074 0 0 0 9.077-9.074" fill="#003b61" transform="translate(19.37 9.685)"/></g></g><g clip-path="url(#h)" opacity=".3" transform="translate(86.964 34.5)"><g clip-path="url(#i)"><path d="m0-.445a6.6 6.6 0 0 0 6.6 6.6 6.6 6.6 0 0 0 6.6-6.6 6.6 6.6 0 0 0 -6.6-6.6 6.6 6.6 0 0 0 -6.6 6.6" fill="#003b61" transform="translate(-.001 7.047)"/></g></g><path d="m0-1.244a18.458 18.458 0 0 0 18.458 18.457 18.458 18.458 0 0 0 18.457-18.457 18.458 18.458 0 0 0 -18.457-18.456 18.458 18.458 0 0 0 -18.458 18.456" fill="#ec6c21" transform="translate(92.977 31.301)"/><path d="m0-.739a10.967 10.967 0 0 0 10.967 10.966 10.968 10.968 0 0 0 10.967-10.966 10.968 10.968 0 0 0 -10.967-10.967 10.967 10.967 0 0 0 -10.967 10.967" fill="#fff" transform="translate(99.764 31.875)"/><path d="m0-.813a12.065 12.065 0 0 0 12.065 12.064 12.064 12.064 0 0 0 12.063-12.064 12.064 12.064 0 0 0 -12.063-12.065 12.065 12.065 0 0 0 -12.065 12.065" fill="#003b61" transform="translate(96.266 33.014)"/><g clip-path="url(#j)" opacity=".3" transform="translate(69.841 35.53)"><g clip-path="url(#k)" transform="translate(0 -.001)"><path d="m0-.842a12.488 12.488 0 0 0 12.489 12.489 12.488 12.488 0 0 0 12.489-12.489 12.488 12.488 0 0 0 -12.489-12.489 12.488 12.488 0 0 0 -12.489 12.489" fill="#003b61" transform="translate(0 13.332)"/></g></g><g clip-path="url(#l)" opacity=".3" transform="translate(64.503 45.769)"><g clip-path="url(#m)"><path d="m0-.52a7.721 7.721 0 0 0 7.721 7.72 7.72 7.72 0 0 0 7.72-7.72 7.72 7.72 0 0 0 -7.72-7.721 7.721 7.721 0 0 0 -7.721 7.721" fill="#003b61" transform="translate(0 8.241)"/></g></g><g clip-path="url(#n)" opacity=".3" transform="translate(61.458 53.623)"><g clip-path="url(#o)"><path d="m0-.272a4.04 4.04 0 0 0 4.04 4.04 4.039 4.039 0 0 0 4.038-4.04 4.039 4.039 0 0 0 -4.038-4.04 4.04 4.04 0 0 0 -4.04 4.04" fill="#003b61" transform="translate(0 4.311)"/></g></g><g clip-path="url(#p)" opacity=".3" transform="translate(67.552 51.775)"><g clip-path="url(#q)"><path d="m0-.2a2.942 2.942 0 0 0 2.942 2.943 2.942 2.942 0 0 0 2.94-2.943 2.942 2.942 0 0 0 -2.94-2.94 2.942 2.942 0 0 0 -2.942 2.94" fill="#003b61" transform="translate(0 3.139)"/></g></g><path d="m-3.821-2.253s13.583-8.59 18-11.405c4.739-3.023 25.542-15.11 25.542-15.11.77-.462.757-.483-.028-.049 0 0-20.93 11.867-25.922 14.451-4.652 2.405-18.799 10.019-18.799 10.019a1.037 1.037 0 0 1 -1.591-.921s-.621-11.446-.853-16.677c-.249-5.614-.37-13.055-.37-13.055-.016-.9-.04-.9-.056 0 0 0-.134 7.443-.392 13.059-.241 5.229-.746 16.676-.746 16.676a1.036 1.036 0 0 1 -1.592.916s-12.313-6.771-16.959-9.185c-4.987-2.591-11.494-6.208-11.494-6.208-.784-.437-.8-.415-.028.048 0 0 6.38 3.837 11.113 6.869 4.409 2.818 16.158 10.565 16.158 10.565a1.036 1.036 0 0 1 0 1.837s-11.462 7.223-15.87 10.042c-4.739 3.024-32.225 19.557-32.225 19.557-.77.461-.757.482.028.048 0 0 27.613-16.312 32.6-18.9 4.649-2.406 16.667-8.655 16.667-8.655a1.036 1.036 0 0 1 1.591.92s.557 10.064.789 15.295c.249 5.614.37 13.058.37 13.058.015.9.04.9.056 0 0 0 .134-7.442.392-13.058.241-5.229.81-15.293.81-15.293a1.036 1.036 0 0 1 1.592-.917s11.546 6.296 16.191 8.71c4.987 2.592 11.493 6.208 11.493 6.208.786.437.8.415.029-.048 0 0-6.38-3.837-11.113-6.868-4.409-2.823-15.385-10.091-15.385-10.091a1.037 1.037 0 0 1 0-1.838" fill="#fff" transform="translate(113.724 35.352)"/><path d="m-.4-1.559c2.032 0 3.928-1.061 3.928-7.8 0-6.7-1.9-7.765-3.928-7.765-2.066 0-3.928 1.06-3.928 7.765 0 6.737 1.862 7.8 3.928 7.8m-5.96-23.119h2.03v8.994h.067a4 4 0 0 1 4.2-3.146c3.962 0 5.757 3.215 5.757 9.474-.001 6.293-1.794 9.507-5.758 9.507a4.44 4.44 0 0 1 -4.4-3.419h-.067v3.009h-1.831z" fill="#595b60" transform="translate(6.416 131.858)"/><path d="m-.619-.56h-.067c-.2.616-1.355.992-2.167 1.2l-1.694.445c-2.031.547-3.081 1.607-3.081 3.761 0 2.12 1.083 3.557 2.845 3.557 2.471 0 4.164-1.881 4.164-5.13zm-8.6-2.5c0-3.728 1.761-5.814 5.554-5.814 3.725 0 5.08 1.95 5.08 4.823v10.741c0 1.026.338 1.506 1.05 1.506h.574v1.504a2.783 2.783 0 0 1 -.948.205c-1.591 0-2.608-.376-2.608-2.257v-.615h-.068c-.813 2.394-2.641 3.078-4.639 3.078-3.149 0-4.576-1.984-4.576-5.131a4.78 4.78 0 0 1 3.628-5.027l3.826-1.094c1.423-.411 1.727-.752 1.727-2.872 0-2.327-1.286-3.148-3.115-3.148-2.4 0-3.454 1.471-3.454 4.1z" fill="#595b60" transform="translate(24.159 121.898)"/><path d="m-.792-.846c-.3 3.864-2.4 6.43-5.722 6.43-3.792 0-6.028-2.667-6.028-9.508 0-6.293 2.235-9.473 6.2-9.473 3.387 0 5.35 2.086 5.554 5.814h-2.035c-.237-2.839-1.355-4.1-3.523-4.1-2.2 0-4.029 1.368-4.029 7.8 0 6.84 1.931 7.764 3.827 7.764 2.065 0 3.386-1.539 3.725-4.72z" fill="#595b60" transform="translate(41.501 126.426)"/><path d="m0-.028h2.032v2.839h.068a4.758 4.758 0 0 1 4.537-3.249 2.549 2.549 0 0 1 .711.1v2.055a5.035 5.035 0 0 0 -.981-.1c-2.235 0-4.335 1.642-4.335 5.164v11.352h-2.032z" fill="#595b60" transform="translate(43.859 113.466)"/><path d="m-.418-1.164c2.269 0 4.03-1.984 4.03-7.8 0-5.78-1.761-7.765-4.03-7.765s-4.029 1.984-4.029 7.765c0 5.813 1.761 7.8 4.029 7.8m0-17.272c3.963 0 6.2 3.181 6.2 9.474 0 6.326-2.234 9.507-6.2 9.507s-6.2-3.181-6.2-9.507c0-6.294 2.235-9.474 6.2-9.474" fill="#595b60" transform="translate(59.109 131.463)"/><path d="m-.411-1.559c2.066 0 3.928-1.061 3.928-7.8 0-6.7-1.862-7.765-3.928-7.765-2.031 0-3.928 1.06-3.928 7.765 0 6.737 1.9 7.8 3.928 7.8m4.131-1.71h-.067a4.44 4.44 0 0 1 -4.402 3.42c-3.962 0-5.757-3.214-5.757-9.507 0-6.259 1.795-9.474 5.757-9.474a4 4 0 0 1 4.2 3.146h.067v-8.994h2.031v24.419h-1.828z" fill="#595b60" transform="translate(73.799 131.858)"/><path d="m167.537-133.335h2.032v18.161h-2.032zm0-6.259h2.032v2.257h-2.032z" fill="#595b60" transform="translate(-84.159 246.773)"/><path d="m-.418-1.164c2.269 0 4.03-1.984 4.03-7.8 0-5.78-1.761-7.765-4.03-7.765s-4.029 1.984-4.029 7.765c0 5.813 1.76 7.8 4.029 7.8m0-17.272c3.963 0 6.2 3.181 6.2 9.474 0 6.326-2.234 9.507-6.2 9.507s-6.2-3.181-6.2-9.507c0-6.294 2.235-9.474 6.2-9.474" fill="#595b60" transform="translate(95.309 131.463)"/><path d="m0-.028h1.828v2.528h.072a4.77 4.77 0 0 1 4.567-2.938 3.558 3.558 0 0 1 3.76 3.181h.067a4.592 4.592 0 0 1 4.571-3.181c2.506 0 4.166 1.436 4.166 4.685v13.886h-2.031v-13.578c0-2.155-.981-3.284-2.81-3.284-2.032 0-3.658 1.847-3.658 4.651v12.21h-2.032v-13.577c0-2.155-.982-3.284-2.811-3.284-2.032 0-3.657 1.847-3.657 4.651v12.21h-2.032z" fill="#595b60" transform="translate(104.374 113.466)"/><path d="m-.662-.53c-.067-4.514-1.321-6.156-3.826-6.156s-3.76 1.642-3.827 6.156zm2 4.686c-.305 3.864-2.4 6.43-5.791 6.43-3.793 0-6.028-2.668-6.028-9.508 0-6.293 2.234-9.474 6.2-9.474 3.991-.004 5.781 2.769 5.781 8.823v.753h-9.82v.854c0 5.232 1.829 6.841 3.827 6.841 2.133 0 3.453-1.539 3.792-4.72z" fill="#595b60" transform="translate(137.375 121.424)"/><path d="m238.369-123.035h-7.348v-1.847h7.348z" fill="#595b60" transform="translate(-88.168 245.844)"/><path d="m0-.028h1.828v2.528h.072a4.77 4.77 0 0 1 4.567-2.938 3.558 3.558 0 0 1 3.76 3.181h.067a4.592 4.592 0 0 1 4.571-3.181c2.506 0 4.166 1.436 4.166 4.685v13.886h-2.031v-13.578c0-2.155-.981-3.284-2.81-3.284-2.032 0-3.658 1.847-3.658 4.651v12.21h-2.032v-13.577c0-2.155-.982-3.284-2.811-3.284-2.032 0-3.657 1.847-3.657 4.651v12.21h-2.032z" fill="#595b60" transform="translate(153.815 113.466)"/><path d="m-.792-.846c-.305 3.864-2.4 6.43-5.722 6.43-3.793 0-6.029-2.667-6.029-9.508 0-6.293 2.235-9.473 6.2-9.473 3.383-.003 5.343 2.085 5.551 5.813h-2.032c-.237-2.839-1.355-4.1-3.522-4.1-2.2 0-4.03 1.368-4.03 7.8 0 6.84 1.931 7.764 3.827 7.764 2.066 0 3.386-1.539 3.725-4.72z" fill="#595b60" transform="translate(187.731 126.426)"/><path d="m0-.028h2.032v2.839h.068a4.759 4.759 0 0 1 4.537-3.249 2.549 2.549 0 0 1 .711.1v2.055a5.044 5.044 0 0 0 -.982-.1c-2.235 0-4.334 1.642-4.334 5.164v11.352h-2.032z" fill="#595b60" transform="translate(190.088 113.466)"/><path d="m-.4-1.559c2.031 0 3.928-1.061 3.928-7.8 0-6.7-1.9-7.765-3.928-7.765-2.067 0-3.928 1.06-3.928 7.765 0 6.737 1.862 7.8 3.928 7.8m-5.96-23.119h2.03v8.994h.067a4 4 0 0 1 4.2-3.146c3.962 0 5.757 3.215 5.757 9.474-.001 6.293-1.794 9.507-5.758 9.507a4.439 4.439 0 0 1 -4.4-3.419h-.067v3.009h-1.831z" fill="#595b60" transform="translate(206.774 131.858)"/><path d="m-.213-.227h.735c.468 0 .817-.07.817-.577 0-.448-.479-.516-.856-.516h-.7zm-.825-1.741h1.571c1.045 0 1.63.328 1.63 1.234a1.038 1.038 0 0 1 -1.094 1.114l1.114 1.82h-.864l-1.019-1.78h-.513v1.78h-.825zm1.482 5.022a2.826 2.826 0 0 0 2.804-2.933 2.814 2.814 0 0 0 -2.8-2.913 2.8 2.8 0 0 0 -2.808 2.913 2.813 2.813 0 0 0 2.8 2.933m0-6.642a3.688 3.688 0 0 1 3.821 3.709 3.7 3.7 0 0 1 -3.817 3.73 3.7 3.7 0 0 1 -3.819-3.73 3.689 3.689 0 0 1 3.819-3.709" fill="#003b61" transform="translate(207.75 70.793)"/></g></svg>