<svg xmlns="http://www.w3.org/2000/svg" width="279.835" height="33.57" viewBox="0 0 279.835 33.57">
  <g id="Group_4773" data-name="Group 4773" transform="translate(13560.348 4720.042)">
    <path id="Path_10223" data-name="Path 10223" d="M30.932,0,24.024-9.9a10.013,10.013,0,0,0,6.336-9.724c0-6.908-5.148-11.176-13.376-11.176H3.652V0H10.78V-8.58h6.556L23.276,0ZM23.144-19.624c0,3.344-2.2,5.368-6.556,5.368H10.78V-24.992h5.808C20.944-24.992,23.144-23.012,23.144-19.624ZM43.076-5.72v-7.128h14.3v-5.544h-14.3V-25.08H59.268V-30.8H35.992V0H59.84V-5.72Zm45.056-10.3a7.4,7.4,0,0,0,4.092-6.776c0-4.8-3.96-8.008-11.66-8.008H65.516V0H81.444c8.1,0,12.32-3.08,12.32-8.4A7.606,7.606,0,0,0,88.132-16.016Zm-8.448-9.416c3.476,0,5.368,1.188,5.368,3.608s-1.892,3.652-5.368,3.652H72.6v-7.26ZM80.916-5.368H72.6V-12.98h8.316c3.7,0,5.676,1.232,5.676,3.828C86.592-6.512,84.612-5.368,80.916-5.368ZM125.268-30.8h-7l-8.228,13.684L101.816-30.8H94.248L106.172-11V0H113.3V-10.912ZM141.856.528c9.68,0,16.852-6.732,16.852-15.928s-7.172-15.928-16.852-15.928C132.132-31.328,125-24.552,125-15.4S132.132.528,141.856.528Zm0-6.072c-5.5,0-9.636-4-9.636-9.856s4.136-9.856,9.636-9.856,9.636,4,9.636,9.856S147.356-5.544,141.856-5.544ZM170.016,0h7.128V-24.992H187V-30.8H160.16v5.808h9.856ZM212.3,0h7.48L206.008-30.8h-7.04L185.24,0h7.3l2.728-6.6h14.3ZM197.56-12.012,202.444-23.8l4.884,11.792Zm31.866-21.031a8.952,8.952,0,0,0-9.085,9.06,8.94,8.94,0,0,0,9.034,9.06,8.995,8.995,0,0,0,9.085-9.111A8.835,8.835,0,0,0,229.426-33.043Zm-.051,16.451a7.175,7.175,0,0,1-7.263-7.392,7.187,7.187,0,0,1,7.315-7.392,7.108,7.108,0,0,1,7.289,7.34A7.266,7.266,0,0,1,229.375-16.591Zm4.774-8.829c0-2.156-1.617-3.542-4.337-3.542h-4.337V-19h2.669v-2.875h1.771L231.788-19h2.669l-2.182-3.336A3.172,3.172,0,0,0,234.149-25.42Zm-6.031,1.54v-3.105h1.514c1.206,0,1.9.565,1.9,1.566,0,.975-.693,1.54-1.9,1.54Zm11.37,13.628h44V-14.52h-44Z" transform="translate(-13564 -4687)" fill="#003b61"/>
    <path id="Path_10224" data-name="Path 10224" d="M30.932,0,24.024-9.9a10.013,10.013,0,0,0,6.336-9.724c0-6.908-5.148-11.176-13.376-11.176H3.652V0H10.78V-8.58h6.556L23.276,0ZM23.144-19.624c0,3.344-2.2,5.368-6.556,5.368H10.78V-24.992h5.808C20.944-24.992,23.144-23.012,23.144-19.624ZM43.076-5.72v-7.128h14.3v-5.544h-14.3V-25.08H59.268V-30.8H35.992V0H59.84V-5.72Z" transform="translate(-13564 -4687)" fill="#ec6c21"/>
  </g>
</svg>
